<svg width="80" height="59" viewBox="0 0 80 59" fill="none" xmlns="http://www.w3.org/2000/svg">
<path d="M53.5188 2.32402C53.1095 3.19355 52.7165 3.99746 52.6182 4.11231C52.5363 4.22715 51.7176 4.44043 50.817 4.58809C49.9163 4.73574 49.0157 4.8834 48.8356 4.91621C48.5408 4.98184 48.6882 5.19512 49.9655 6.44199L51.4228 7.90215L51.1117 9.8873C50.9316 10.9865 50.8333 11.8889 50.8661 11.8889C50.8988 11.8889 51.7176 11.4787 52.6837 10.9701L54.4522 10.0514L56.3026 10.9865L58.1366 11.9053L58.0383 11.1178C57.9728 10.6912 57.8091 9.78887 57.6781 9.11621L57.4325 7.90215L58.8571 6.4584C59.6431 5.65449 60.2653 4.98184 60.2162 4.94902C60.1507 4.8834 58.4477 4.58809 57.0722 4.40762L56.2862 4.30918L55.3856 2.5209C54.8943 1.53652 54.4358 0.732617 54.3703 0.732617C54.3048 0.749024 53.9282 1.45449 53.5188 2.32402Z" fill="white"/>
<path d="M31.8388 3.83337C31.0364 5.42478 31.1674 5.34275 29.0878 5.67087C28.3837 5.76931 27.8105 5.90056 27.8105 5.93337C27.8105 5.96619 28.3345 6.49119 28.9895 7.11462L30.1522 8.23025L29.9065 9.85447C29.7592 10.7404 29.6773 11.5115 29.71 11.5279C29.7264 11.5607 30.4142 11.249 31.2165 10.8224L32.6903 10.0677L34.1149 10.8224C34.9009 11.2326 35.5887 11.5279 35.6378 11.4951C35.6705 11.4459 35.5723 10.7076 35.4085 9.83806L35.1138 8.26306L36.3092 7.0654L37.5045 5.85134L37.046 5.7529C36.784 5.70369 36.0635 5.58884 35.4413 5.4904C34.819 5.39197 34.2459 5.27712 34.164 5.2115C34.0822 5.16228 33.7219 4.50603 33.3617 3.75134C33.0014 2.99665 32.6739 2.37322 32.6412 2.37322C32.592 2.37322 32.2318 3.02947 31.8388 3.83337Z" fill="white"/>
<path d="M66.3747 3.80039C66.0472 4.32539 65.4413 5.34258 65.0319 6.06446C63.771 8.24649 57.0082 19.7145 56.5497 20.4363C56.4678 20.584 56.2549 20.9613 56.0748 21.2566C55.911 21.5684 55.3215 22.5855 54.7484 23.5371C53.0454 26.4082 49.492 32.4293 49.0827 33.1676C48.8698 33.5613 48.6242 33.873 48.5587 33.873C48.4932 33.873 48.2967 33.5613 48.1165 33.1676C47.7563 32.3309 45.5129 27.2285 44.7433 25.4566C44.4322 24.7676 43.9409 23.6191 43.6298 22.9137C43.3187 22.2246 42.7783 20.9449 42.4017 20.0918C42.025 19.2387 41.5174 18.0738 41.2718 17.516L40.8297 16.4988L34.1814 16.4824H27.5495L26.5998 19.2223C26.0758 20.748 25.3062 22.9793 24.864 24.1934C24.1272 26.3098 20.2135 37.6793 18.6907 42.1582C18.2977 43.323 17.7245 44.9965 17.4134 45.8496C17.1187 46.7027 16.8239 47.5723 16.7584 47.7855L16.6602 48.1465L22.3259 48.1137L28.008 48.0645L30.2023 42.4863C34.1487 32.4949 34.7709 30.9855 34.9183 30.9363C35.0493 30.9035 36.8505 35.2676 40.191 43.7168C40.6004 44.7504 41.1735 46.1777 41.4519 46.8668L41.9759 48.1301L47.5434 48.1465H53.1273L53.6349 47.277C53.9133 46.8176 55.3379 44.3895 56.7953 41.9121C59.4317 37.4332 61.6423 33.709 61.9534 33.2004C62.0353 33.0527 62.2645 32.6754 62.4283 32.3801C62.592 32.0684 63.9512 29.7551 65.4413 27.2285C66.9314 24.702 68.5525 21.9457 69.0438 21.109C69.535 20.2723 69.9772 19.616 70.0099 19.6652C70.059 19.698 69.9608 20.7973 69.8298 22.0934C69.5678 24.5215 69.1912 28.0816 68.5034 34.6934C68.2905 36.8098 67.8812 40.6488 67.6028 43.2082C67.3408 45.784 67.1115 47.966 67.1115 48.0973C67.1115 48.2613 68.094 48.3105 72.2533 48.3105H77.4114L77.4933 47.4574C77.5424 46.9816 77.6243 45.5543 77.6734 44.291C77.8044 40.8293 78.3775 27.6879 78.574 23.8652C78.6559 22.0113 78.8033 18.7301 78.9015 16.5645C79.2454 8.44336 79.3928 5.04727 79.4747 3.96445L79.5565 2.86524H73.2522H66.9478L66.3747 3.80039Z" fill="white"/>
<path d="M13.9748 11.1011C13.6146 11.8558 13.3198 12.4792 13.3034 12.512C13.2871 12.5284 12.5993 12.6597 11.7806 12.7745C10.9454 12.9058 10.2413 13.037 10.2086 13.0698C10.1594 13.1026 10.6343 13.6276 11.2402 14.2347L12.3537 15.3503L12.1244 16.8269C11.9934 17.6472 11.9443 18.3526 11.9771 18.4019C12.0262 18.4511 12.6157 18.1886 13.2871 17.8112C13.9584 17.4339 14.5971 17.1386 14.7281 17.1386C14.8427 17.1386 15.5304 17.4339 16.2346 17.8112C16.9387 18.1722 17.5446 18.4511 17.5937 18.4183C17.6264 18.3691 17.5282 17.6636 17.3808 16.8269L17.1188 15.3175L18.2323 14.1855C19.4441 12.955 19.4441 12.9714 18.0686 12.7909C16.0872 12.5448 16.2346 12.6269 15.4813 11.1339C15.1047 10.3792 14.7608 9.75577 14.7117 9.75577C14.6626 9.75577 14.3187 10.3628 13.9748 11.1011Z" fill="white"/>
<path d="M3.49447 23.2913C3.05234 24.2264 2.74122 24.6694 2.56109 24.6858C2.41372 24.6858 1.70959 24.7678 1.03822 24.8663L-0.222656 25.0631L0.890844 26.1788L1.98797 27.2944L1.74234 28.7709C1.61134 29.5913 1.52947 30.2639 1.57859 30.2639C1.61134 30.2639 2.23359 29.9522 2.95409 29.5749L4.28047 28.8858L5.60684 29.5749C6.32734 29.9358 6.94959 30.2147 6.98234 30.1983C7.01509 30.1655 6.91684 29.4928 6.76947 28.7053L6.49109 27.2616L7.58822 26.1624L8.68534 25.0467L8.22684 24.9483C7.96484 24.8991 7.39172 24.817 6.93322 24.7678C5.65597 24.6038 5.63959 24.5874 4.96822 23.2092C4.62434 22.4874 4.28047 21.8967 4.23134 21.8967C4.18222 21.8967 3.83834 22.5202 3.49447 23.2913Z" fill="white"/>
<path d="M3.57628 38.4674C2.98678 39.6979 2.97041 39.6979 1.56216 39.8783C1.05453 39.9275 0.596031 40.0424 0.546906 40.108C0.514156 40.1736 0.890781 40.6166 1.38203 41.076C2.18441 41.8143 2.28266 41.9947 2.21716 42.3885C2.16803 42.651 2.06978 43.2252 2.00428 43.6846L1.90603 44.5049L3.06866 43.9143L4.23128 43.3072L5.37753 43.8979C6.01616 44.226 6.52378 44.4229 6.52378 44.3408C6.52378 44.2588 6.44191 43.6682 6.32728 43.0447L6.14716 41.8963L6.98228 41.0432C7.45716 40.5674 7.83378 40.1244 7.83378 40.0752C7.83378 40.0096 7.40803 39.9111 6.90041 39.8455C5.49216 39.6814 5.34478 39.583 4.75528 38.4018C4.44416 37.8111 4.18216 37.3189 4.16578 37.3189C4.14941 37.3189 3.88741 37.8275 3.57628 38.4674Z" fill="white"/>
<path d="M6.67141 54.0199C6.50766 54.0527 6.22928 54.6434 5.86903 55.8246C5.57428 56.7926 5.29591 57.6785 5.24678 57.777C5.19766 57.9246 5.36141 57.9902 5.73803 57.9902C6.18016 57.9902 6.34391 57.9082 6.47491 57.6129C6.75328 57.0223 7.99778 57.0715 7.99778 57.6621C7.99778 57.9246 8.11241 57.9902 8.57091 57.9902C8.88203 57.9902 9.14403 57.941 9.14403 57.8754C9.14403 57.8098 8.86566 56.9238 8.53816 55.923C7.96503 54.1512 7.91591 54.0855 7.44103 54.0199C7.16266 53.9871 6.81878 53.9871 6.67141 54.0199ZM7.39191 55.316C7.44103 55.5785 7.53928 55.9066 7.58841 56.0543C7.68666 56.3004 7.62116 56.3496 7.26091 56.3496C6.85153 56.3496 6.81878 56.3168 6.91703 55.841C6.96616 55.5621 7.01528 55.2176 7.01528 55.1027C7.01528 54.6926 7.29366 54.8566 7.39191 55.316Z" fill="white"/>
<path d="M14.9566 54.1348C14.3671 54.4465 14.2688 54.5941 14.0396 55.4473C13.6466 56.891 14.4653 57.9902 15.9227 57.9902C17.2491 57.9738 17.8222 57.334 17.8222 55.8738C17.8222 55.2012 17.7403 54.9551 17.3801 54.5449C16.807 53.9215 15.7098 53.741 14.9566 54.1348ZM16.414 54.9715C16.7415 55.1027 16.7906 56.6613 16.4795 56.973C16.2502 57.2027 15.7098 57.2191 15.3987 57.0223C15.0876 56.8418 14.9566 55.6605 15.1858 55.2176C15.3823 54.873 15.89 54.7746 16.414 54.9715Z" fill="white"/>
<path d="M23.7169 54.02C23.3566 54.0692 23.242 54.2497 22.7671 55.7427C22.4888 56.6614 22.2431 57.5145 22.2431 57.6294C22.2431 58.0231 21.9156 57.8098 21.4244 57.088L20.9168 56.3497L21.277 55.8739C21.5881 55.4637 21.6045 55.3325 21.4408 54.8239C21.2115 54.1677 20.9495 54.0528 19.5904 54.0528H18.6406V56.0216V57.9903H19.1319C19.6068 57.9903 19.6231 57.9575 19.6231 57.252C19.6231 56.8419 19.705 56.5137 19.7869 56.5137C19.8851 56.5137 20.1635 56.8419 20.4091 57.252L20.8513 57.9903H22.0139C23.0619 57.9903 23.1929 57.9575 23.3403 57.613C23.4876 57.3177 23.6678 57.2192 24.1099 57.2028C24.6011 57.1864 24.7321 57.252 24.8631 57.5802C24.9778 57.8919 25.1415 57.9903 25.5181 57.9903C26.1076 57.9903 26.124 58.1708 25.3216 55.6606C24.7649 53.9872 24.683 53.9052 23.7169 54.02ZM20.4091 55.2669C20.3764 55.4802 20.2126 55.6278 19.9998 55.6606C19.705 55.7098 19.6231 55.6442 19.6231 55.3161C19.6231 54.8239 19.7214 54.7255 20.1308 54.8239C20.36 54.8895 20.4419 55.0372 20.4091 55.2669ZM24.2736 55.3161C24.3391 55.5786 24.421 55.9067 24.4701 56.0544C24.5356 56.2841 24.4538 56.3497 24.1099 56.3497C23.7169 56.3497 23.6841 56.3169 23.7824 55.8411C23.8315 55.5622 23.8806 55.2177 23.8806 55.1028C23.8806 54.6927 24.1754 54.8567 24.2736 55.3161Z" fill="white"/>
<path d="M32.1011 54.0852C31.6426 54.3148 31.4789 54.8891 31.7409 55.3648C31.9046 55.6602 31.8719 55.775 31.5935 56.0867C31.1841 56.5133 31.1514 57.1203 31.4952 57.6125C31.7245 57.9406 31.8882 57.957 33.5585 57.957H35.3597L35.0159 57.5797C34.6884 57.2187 34.672 57.1695 34.9176 56.7102C35.065 56.4312 35.1796 56.1195 35.1796 56.0211C35.1796 55.7422 34.3281 55.8406 34.1152 56.1359C33.9351 56.382 33.8696 56.382 33.6404 56.2016C33.3947 55.9883 33.3947 55.9555 33.7059 55.6602C34.0661 55.3156 34.148 54.5117 33.8369 54.2492C33.493 53.9867 32.5105 53.8883 32.1011 54.0852ZM33.0181 55.1516C32.9199 55.2664 32.7889 55.3156 32.707 55.2664C32.4941 55.1352 32.5269 54.7414 32.7725 54.6594C33.0509 54.5609 33.231 54.9055 33.0181 55.1516ZM32.969 56.8414C33.2637 57.1695 33.2474 57.1695 32.838 57.1695C32.5924 57.1695 32.3959 57.1367 32.3959 57.1039C32.3959 57.0711 32.3467 56.9234 32.2976 56.7758C32.1502 56.3984 32.6087 56.4477 32.969 56.8414Z" fill="white"/>
<path d="M52.1441 55.7754C51.8002 56.7598 51.4891 57.6785 51.44 57.777C51.3909 57.9246 51.5546 57.9902 52.0295 57.9902C52.5862 57.9902 52.7009 57.941 52.7009 57.6785C52.7009 57.0387 53.929 56.9566 54.2074 57.5801C54.3547 57.9082 54.5185 57.9902 54.9606 57.9902C55.4191 57.9902 55.501 57.941 55.4027 57.6949C55.3372 57.5473 55.0425 56.6941 54.7477 55.8082C54.453 54.9223 54.1746 54.1512 54.1255 54.1184C54.0927 54.0691 53.7489 54.0199 53.405 54.0035L52.75 53.9707L52.1441 55.7754ZM53.7652 55.7262C53.8799 56.3168 53.8635 56.3496 53.4541 56.3496C52.9629 56.3496 52.9629 56.3332 53.2085 55.4637C53.405 54.7418 53.6015 54.8402 53.7652 55.7262Z" fill="white"/>
<path d="M56.779 54.266C55.8292 54.9059 55.5509 55.9887 56.0585 57.0879C56.386 57.7441 56.8936 57.9902 57.9416 57.9902C59.2025 57.9902 59.2516 57.941 59.2516 56.7434V55.6934H58.4165C57.6469 55.6934 57.5977 55.7262 57.6469 56.0543C57.6796 56.3004 57.7942 56.4152 57.9907 56.4152C58.1872 56.3988 58.2691 56.4973 58.2691 56.7762C58.2691 57.1043 58.1872 57.1699 57.8106 57.1699C57.1884 57.1699 56.9591 56.891 56.9591 56.1363C56.9591 55.1191 57.172 54.873 58.0726 54.873C58.6621 54.873 58.8914 54.791 59.0551 54.5449C59.2352 54.2496 59.2025 54.2004 58.8422 54.0527C58.1381 53.7902 57.3685 53.8723 56.779 54.266Z" fill="white"/>
<path d="M0.136719 56.0381V58.0068L0.578844 57.9576C1.02097 57.9084 1.02097 57.892 1.00459 56.7107C1.00459 56.0709 1.05372 55.5295 1.13559 55.5295C1.21747 55.5295 1.28297 55.6443 1.28297 55.7756C1.28297 55.9232 1.41397 56.4811 1.57772 57.0061C1.83972 57.9412 1.88884 57.9904 2.38009 57.9904C2.87134 57.9904 2.92047 57.9248 3.08422 57.285C3.18247 56.9076 3.36259 56.3006 3.49359 55.9396L3.70647 55.2834L3.72284 56.6287L3.73922 57.9904H4.23047H4.72172V56.0217V54.0529H3.98484H3.26434L2.92047 55.185C2.74034 55.792 2.59297 56.3826 2.59297 56.4975C2.59297 56.5959 2.52747 56.6779 2.44559 56.6779C2.38009 56.6779 2.15084 56.0873 1.93797 55.3654L1.56134 54.0529H0.857219H0.136719V56.0381Z" fill="white"/>
<path d="M9.79883 56.0215V57.9902H10.2901C10.765 57.9902 10.7813 57.9738 10.7813 57.1699V56.3496H11.4363H12.0913V57.1699V57.9902H12.6645H13.2376V56.0215V54.0527H12.6645C12.0913 54.0527 12.0913 54.0527 12.0913 54.791V55.5293H11.4363H10.7813V54.791C10.7813 54.0855 10.765 54.0527 10.2901 54.0527H9.79883V56.0215Z" fill="white"/>
<path d="M26.3379 54.4629C26.3379 54.8074 26.4198 54.873 26.8291 54.873H27.3204V56.4316V57.9902H27.8116H28.3029V56.4316V54.873H28.7941C29.2035 54.873 29.2854 54.8074 29.2854 54.4629C29.2854 54.0527 29.269 54.0527 27.8116 54.0527C26.3543 54.0527 26.3379 54.0527 26.3379 54.4629Z" fill="white"/>
<path d="M37.4727 56.0381V58.0068L37.9312 57.9576C38.3733 57.9084 38.3733 57.9084 38.3733 56.6451C38.3569 55.9396 38.3897 55.4146 38.4388 55.4639C38.5043 55.5131 38.6844 56.0873 38.8645 56.7271C39.1757 57.8428 39.2248 57.9084 39.716 57.9576C40.2073 58.0068 40.24 57.974 40.502 57.0553C41.0097 55.2178 41.0424 55.2014 41.0588 56.6287L41.0752 57.9904H41.5664H42.0577V56.0217V54.0529H41.3372H40.6167L40.2728 55.185C40.0763 55.8084 39.9289 56.399 39.9289 56.4975C39.9289 56.5959 39.8634 56.6779 39.7815 56.6779C39.716 56.6779 39.4868 56.0873 39.2739 55.3654L38.8973 54.0529H38.1932H37.4727V56.0381Z" fill="white"/>
<path d="M43.7765 54.2496C43.7273 54.3645 43.4817 55.1191 43.2197 55.9395C42.9577 56.7434 42.6957 57.5473 42.6302 57.6949C42.532 57.941 42.6138 57.9902 43.1051 57.9902C43.4326 57.9902 43.6946 57.9246 43.6946 57.8426C43.6946 57.5145 44.2022 57.2027 44.6443 57.252C44.89 57.2848 45.1356 57.3176 45.1847 57.3176C45.2502 57.334 45.3321 57.4816 45.3812 57.6621C45.4467 57.9082 45.6105 57.9902 45.9707 57.9902C46.2655 57.9902 46.4783 57.9082 46.4783 57.777C46.4783 57.6785 46.2163 56.7926 45.8888 55.8082L45.283 54.0527H44.5625C44.1367 54.0527 43.8092 54.1348 43.7765 54.2496ZM44.9063 55.8902C45.0046 56.3004 44.9718 56.3496 44.5788 56.3496C44.1695 56.3496 44.1531 56.3168 44.2677 55.7426C44.4642 54.6434 44.6116 54.6762 44.9063 55.8902Z" fill="white"/>
<path d="M47.1328 56.0215V57.9902H47.5422C47.9188 57.9902 47.9516 57.941 47.9679 57.1207C47.9843 56.6613 47.9679 56.0707 47.9516 55.8082C47.9024 55.0535 48.1644 55.316 48.8522 56.6777L49.5072 57.9902H50.1949H50.8991V56.0215V54.0527H50.3914H49.8838L49.9493 55.2832C49.9821 55.9559 49.9493 56.5137 49.8838 56.5137C49.8347 56.5137 49.4908 55.9559 49.1469 55.2832L48.5247 54.0527H47.8369H47.1328V56.0215Z" fill="white"/>
<path d="M60.2344 56.0215V57.9902H61.3806C62.4941 57.9902 62.5269 57.9738 62.5269 57.5801C62.5269 57.2027 62.4614 57.1699 61.8719 57.1699C61.2824 57.1699 61.2169 57.1207 61.2169 56.7598C61.2169 56.3988 61.2824 56.3496 61.7736 56.3496C62.183 56.3496 62.3468 56.2676 62.4123 56.0379C62.5105 55.6113 62.4123 55.5293 61.7572 55.5293C61.3315 55.5293 61.2169 55.4637 61.2169 55.2012C61.2169 54.9223 61.3315 54.873 61.8719 54.873C62.4614 54.873 62.5269 54.8238 62.5269 54.4629C62.5269 54.0691 62.4941 54.0527 61.3806 54.0527H60.2344V56.0215Z" fill="white"/>
<path d="M63.3438 56.0217V57.9904H63.7531C64.1625 57.9904 64.1625 57.974 64.1625 56.6287C64.1789 55.1357 64.2935 55.185 64.7356 56.8748C65.014 57.9576 65.0468 57.9904 65.5544 57.9904C66.062 57.9904 66.0948 57.9576 66.3731 56.8748C66.8153 55.185 66.9299 55.1357 66.9463 56.6451V58.0068L67.4048 57.9576L67.8469 57.9084V56.0217V54.135H67.1264H66.4059L66.0784 55.2834C65.9146 55.9068 65.7018 56.4975 65.6363 56.5795C65.5544 56.6615 65.407 56.399 65.3088 56.0053C64.7848 54.0037 64.8011 54.0529 64.0479 54.0529H63.3438V56.0217Z" fill="white"/>
<path d="M68.75 56.0215V57.9902H69.9945C71.1735 57.9902 71.2226 57.9738 71.1735 57.6129C71.1407 57.3176 71.0097 57.2355 70.5185 57.2027C69.9781 57.1535 69.8962 57.0879 69.8962 56.7434C69.8962 56.3988 69.9781 56.3496 70.4694 56.3496C70.977 56.3496 71.0425 56.3004 71.0425 55.9395C71.0425 55.5785 70.977 55.5293 70.4857 55.5293C70.0764 55.5293 69.9126 55.4473 69.8471 55.2176C69.7816 54.9387 69.8635 54.8895 70.453 54.8402C71.0097 54.8074 71.1407 54.7254 71.1735 54.4137C71.2226 54.0691 71.1735 54.0527 69.9945 54.0527H68.75V56.0215Z" fill="white"/>
<path d="M71.8594 56.0051V57.9902H72.3506H72.8255L72.8746 56.6285L72.9237 55.2832L73.5951 56.5957L74.2829 57.9082H74.987H75.7075L75.7566 55.9723L75.8057 54.0527H75.3145H74.8233L74.7741 55.3816L74.725 56.7105L74.0536 55.4145L73.3659 54.1348L72.6126 54.0855L71.8594 54.0363V56.0051Z" fill="white"/>
<path d="M76.3463 54.4137C76.3791 54.709 76.5264 54.8074 76.9031 54.8402L77.4271 54.8895V56.448V57.9902H77.9183H78.4096V56.4316V54.873H78.9008C79.3102 54.873 79.3921 54.8074 79.3921 54.4629C79.3921 54.0527 79.3921 54.0527 77.8364 54.0527C76.3136 54.0527 76.2808 54.0691 76.3463 54.4137Z" fill="white"/>
</svg>
