<svg width="126" height="127" viewBox="0 0 126 127" fill="none" xmlns="http://www.w3.org/2000/svg">
<g opacity="0.75">
<path d="M117.276 14.3509L114.403 11.481L103.646 22.2239L101.018 19.5996L98.1445 22.4695L103.646 27.9638L117.276 14.3509Z" fill="#0B1B7E"/>
<path d="M34.141 26.311L30.8894 23.8774L20.1022 38.2413L17.6939 35.8361L14.8203 38.7061L20.5411 44.4216L34.141 26.311Z" fill="#0B1B7E"/>
<path d="M109.742 83.9535V37.1518C118.873 36.139 126 28.3918 126 19.0047C126 8.93149 117.794 0.737793 107.71 0.737793C98.3125 0.737793 90.5534 7.85578 89.5393 16.975H81.2903V14.9453C81.2903 9.3496 76.732 4.79709 71.129 4.79709H60.5938C59.7524 2.44067 57.517 0.737793 54.871 0.737793H26.4194C23.7734 0.737793 21.5379 2.44067 20.6965 4.79709H10.1613C4.55835 4.79709 0 9.3496 0 14.9453V104.25C0 109.846 4.55835 114.398 10.1613 114.398H60.9677C60.9677 117.755 63.7032 120.487 67.0645 120.487H69.3854C70.2938 123.98 73.4499 126.576 77.2258 126.576C81.0017 126.576 84.1578 123.98 85.0663 120.487H101.901C102.81 123.98 105.966 126.576 109.742 126.576C113.518 126.576 116.674 123.98 117.582 120.487H119.903C123.265 120.487 126 117.755 126 114.398V93.4259L118.887 83.9535H109.742ZM107.71 4.79709C115.554 4.79709 121.935 11.1722 121.935 19.0047C121.935 26.8371 115.554 33.2122 107.71 33.2122C99.8652 33.2122 93.4839 26.8371 93.4839 19.0047C93.4839 11.1722 99.8652 4.79709 107.71 4.79709ZM81.2903 21.0343H89.5393C90.4802 29.4878 97.2151 36.212 105.677 37.1518V83.9535H101.613V75.8349H81.2903V21.0343ZM89.4193 88.0128V79.8942H97.5484V108.309H65.0322V79.8942H73.1613V88.0128H89.4193ZM85.3548 79.8942V83.9535H77.2258V79.8942H85.3548ZM60.9677 8.8564H71.129C74.4904 8.8564 77.2258 11.5883 77.2258 14.9453V75.8349H73.1613V16.975C73.1613 14.7363 71.3384 12.9157 69.0968 12.9157H60.9677V8.8564ZM24.3871 6.82675C24.3871 5.70638 25.2996 4.79709 26.4194 4.79709H54.871C55.9907 4.79709 56.9032 5.70638 56.9032 6.82675V14.9453C56.9032 16.0657 55.9907 16.975 54.871 16.975H26.4194C25.2996 16.975 24.3871 16.0657 24.3871 14.9453V6.82675ZM60.9677 108.309V110.339H10.1613C6.79994 110.339 4.06452 107.607 4.06452 104.25V14.9453C4.06452 11.5883 6.79994 8.8564 10.1613 8.8564H20.3226V12.9157H12.1935C9.95197 12.9157 8.12903 14.7363 8.12903 16.975V102.22C8.12903 104.459 9.95197 106.28 12.1935 106.28H60.9677V108.309ZM60.9677 75.8349V102.22H12.1935V16.975H20.6965C21.5379 19.3314 23.7734 21.0343 26.4194 21.0343H54.871C57.517 21.0343 59.7524 19.3314 60.5938 16.975H69.0968V75.8349H60.9677ZM69.3854 116.428H67.0645C65.9447 116.428 65.0322 115.519 65.0322 114.398V112.369H71.9053C70.6921 113.428 69.802 114.826 69.3854 116.428ZM77.2258 122.517C74.9842 122.517 73.1613 120.696 73.1613 118.458C73.1613 116.219 74.9842 114.398 77.2258 114.398C79.4674 114.398 81.2903 116.219 81.2903 118.458C81.2903 120.696 79.4674 122.517 77.2258 122.517ZM101.901 116.428H85.0663C84.6497 114.824 83.7595 113.426 82.5463 112.369H104.421C103.208 113.428 102.318 114.826 101.901 116.428ZM109.742 122.517C107.5 122.517 105.677 120.696 105.677 118.458C105.677 116.219 107.5 114.398 109.742 114.398C111.984 114.398 113.806 116.219 113.806 118.458C113.806 120.696 111.984 122.517 109.742 122.517ZM121.935 114.398C121.935 115.519 121.023 116.428 119.903 116.428H117.582C117.166 114.824 116.276 113.426 115.062 112.369H121.935V114.398ZM121.935 108.309H101.613V88.0128H116.855L121.935 94.7776V108.309Z" fill="#0B1B7E"/>
<path d="M38.6133 25.0938H65.0326V29.1531H38.6133V25.0938Z" fill="#0B1B7E"/>
<path d="M60.9688 33.2124H65.0333V37.2717H60.9688V33.2124Z" fill="#0B1B7E"/>
<path d="M38.6133 33.2124H56.9036V37.2717H38.6133V33.2124Z" fill="#0B1B7E"/>
<path d="M38.6133 41.3306H65.0326V45.3899H38.6133V41.3306Z" fill="#0B1B7E"/>
<path d="M34.141 50.6669L30.8894 48.2334L20.1022 62.5972L17.6939 60.1921L14.8203 63.062L20.5411 68.7775L34.141 50.6669Z" fill="#0B1B7E"/>
<path d="M38.6133 49.4497H65.0326V53.509H38.6133V49.4497Z" fill="#0B1B7E"/>
<path d="M60.9688 57.5684H65.0333V61.6277H60.9688V57.5684Z" fill="#0B1B7E"/>
<path d="M38.6133 57.5684H56.9036V61.6277H38.6133V57.5684Z" fill="#0B1B7E"/>
<path d="M38.6133 65.6865H65.0326V69.7458H38.6133V65.6865Z" fill="#0B1B7E"/>
<path d="M16.2578 98.1608H40.6449V77.8643H16.2578V98.1608ZM20.3223 81.9236H36.5804V94.1015H20.3223V81.9236Z" fill="#0B1B7E"/>
<path d="M44.709 77.8643H56.9025V81.9236H44.709V77.8643Z" fill="#0B1B7E"/>
<path d="M44.709 85.9834H56.9025V90.0427H44.709V85.9834Z" fill="#0B1B7E"/>
<path d="M44.709 94.1016H56.9025V98.1609H44.709V94.1016Z" fill="#0B1B7E"/>
</g>
</svg>
