<svg width="24" height="24" viewBox="0 0 24 24" fill="none" xmlns="http://www.w3.org/2000/svg">
<g clip-path="url(#clip0_911_334)">
<path d="M11.9998 13.8963C13.0471 13.8963 13.8961 13.0473 13.8961 12C13.8961 10.9526 13.0471 10.1036 11.9998 10.1036C10.9525 10.1036 10.1035 10.9526 10.1035 12C10.1035 13.0473 10.9525 13.8963 11.9998 13.8963Z" fill="white"/>
<path d="M14.425 7.20789H9.57448C8.94633 7.20789 8.34391 7.45742 7.89975 7.90158C7.45558 8.34575 7.20605 8.94816 7.20605 9.57631V14.4253C7.20605 15.0534 7.45558 15.6558 7.89975 16.1C8.34391 16.5441 8.94633 16.7937 9.57448 16.7937H14.425C15.0531 16.7937 15.6556 16.5441 16.0997 16.1C16.5439 15.6558 16.7934 15.0534 16.7934 14.4253V9.57473C16.793 8.94686 16.5433 8.34485 16.0992 7.90102C15.6551 7.4572 15.0529 7.20789 14.425 7.20789ZM11.9997 15.1042C11.3857 15.1045 10.7854 14.9227 10.2747 14.5818C9.76401 14.2409 9.36589 13.7562 9.1307 13.189C8.8955 12.6218 8.83381 11.9976 8.9534 11.3954C9.073 10.7931 9.36852 10.2398 9.80259 9.80554C10.2367 9.37125 10.7898 9.07545 11.392 8.95554C11.9942 8.83564 12.6184 8.89702 13.1857 9.13192C13.753 9.36683 14.2379 9.7647 14.5791 10.2752C14.9203 10.7857 15.1024 11.386 15.1024 12C15.1015 12.8227 14.7744 13.6116 14.1928 14.1935C13.6112 14.7754 12.8225 15.1029 11.9997 15.1042ZM15.1213 9.66315C14.9694 9.66346 14.8208 9.61868 14.6944 9.53448C14.568 9.45028 14.4694 9.33045 14.4111 9.19017C14.3528 9.04989 14.3375 8.89546 14.367 8.74646C14.3966 8.59746 14.4697 8.46058 14.5771 8.35317C14.6845 8.24576 14.8214 8.17264 14.9704 8.14308C15.1194 8.11352 15.2738 8.12885 15.4141 8.18713C15.5544 8.2454 15.6742 8.344 15.7584 8.47044C15.8426 8.59687 15.8874 8.74545 15.8871 8.89736C15.8867 9.10033 15.8059 9.29487 15.6624 9.43839C15.5188 9.58192 15.3243 9.66273 15.1213 9.66315Z" fill="white"/>
<path d="M12 0C9.62663 0 7.30655 0.703788 5.33316 2.02236C3.35977 3.34094 1.8217 5.21509 0.913451 7.4078C0.00519938 9.60051 -0.232441 12.0133 0.230582 14.3411C0.693605 16.6689 1.83649 18.8071 3.51472 20.4853C5.19295 22.1635 7.33115 23.3064 9.65892 23.7694C11.9867 24.2324 14.3995 23.9948 16.5922 23.0866C18.7849 22.1783 20.6591 20.6402 21.9776 18.6668C23.2962 16.6935 24 14.3734 24 12C24 8.8174 22.7357 5.76516 20.4853 3.51472C18.2348 1.26428 15.1826 0 12 0V0ZM18 14.4253C17.9992 15.3731 17.6223 16.2818 16.9521 16.9521C16.2819 17.6223 15.3731 17.9992 14.4253 18H9.57474C8.62705 17.9987 7.71853 17.6217 7.04841 16.9516C6.37828 16.2815 6.00126 15.373 6.00001 14.4253V9.57474C6.00126 8.62704 6.37828 7.71852 7.04841 7.0484C7.71853 6.37828 8.62705 6.00125 9.57474 6H14.4253C15.373 6.00125 16.2815 6.37828 16.9516 7.0484C17.6217 7.71852 17.9988 8.62704 18 9.57474V14.4253Z" fill="white"/>
</g>
<defs>
<clipPath id="clip0_911_334">
<rect width="24" height="24" fill="white"/>
</clipPath>
</defs>
</svg>
