<svg width="126" height="126" viewBox="0 0 126 126" fill="none" xmlns="http://www.w3.org/2000/svg">
<path opacity="0.75" d="M63 59.0625C63.7249 59.0625 64.3125 58.4749 64.3125 57.75C64.3125 57.0251 63.7249 56.4375 63 56.4375C62.2751 56.4375 61.6875 57.0251 61.6875 57.75C61.6875 58.4749 62.2751 59.0625 63 59.0625Z" fill="#0B1B7E"/>
<path opacity="0.75" d="M63 53.8125C63.7249 53.8125 64.3125 53.2249 64.3125 52.5C64.3125 51.7751 63.7249 51.1875 63 51.1875C62.2751 51.1875 61.6875 51.7751 61.6875 52.5C61.6875 53.2249 62.2751 53.8125 63 53.8125Z" fill="#0B1B7E"/>
<path opacity="0.75" d="M63 48.5625C63.7249 48.5625 64.3125 47.9749 64.3125 47.25C64.3125 46.5251 63.7249 45.9375 63 45.9375C62.2751 45.9375 61.6875 46.5251 61.6875 47.25C61.6875 47.9749 62.2751 48.5625 63 48.5625Z" fill="#0B1B7E"/>
<path opacity="0.75" d="M123.176 13.7419L116.613 3.24188C116.133 2.47406 114.867 2.47406 114.387 3.24188L107.825 13.7419C107.695 13.9506 107.625 14.1908 107.625 14.4375V39.375H70.8461C73.0065 37.7593 74.6721 35.4887 75.5134 32.8125H77.4375C77.8733 32.8125 78.2801 32.5959 78.5243 32.2363C78.7684 31.8767 78.8183 31.4173 78.6568 31.0131L76.125 24.6855V23.4596C78.3864 22.8756 80.0625 20.8176 80.0625 18.375V15.75C80.0625 15.0255 79.4745 14.4375 78.75 14.4375H56.4375C52.8189 14.4375 49.875 17.3814 49.875 21V28.4196C49.875 32.8873 52.0249 36.8904 55.3009 39.375H47.0085C47.1555 38.9629 47.25 38.5245 47.25 38.0625V3.9375C47.25 3.213 46.662 2.625 45.9375 2.625H3.9375C3.213 2.625 2.625 3.213 2.625 3.9375V38.0625C2.625 40.2334 4.39163 42 6.5625 42H15.75V44.625C15.75 48.2436 18.6939 51.1875 22.3125 51.1875H48.5625V75.9465L38.2869 112.946C33.7326 113.487 30.1875 117.365 30.1875 122.063C30.1875 122.787 30.7755 123.375 31.5 123.375H55.125C55.8495 123.375 56.4375 122.787 56.4375 122.063V114.35L63 88.1003L69.5625 114.35V122.063C69.5625 122.787 70.1505 123.375 70.875 123.375H94.5C95.2245 123.375 95.8125 122.787 95.8125 122.063C95.8125 116.996 91.6913 112.875 86.625 112.875H86.3455L77.4375 75.9688V51.1875H103.688C105.171 51.1875 106.525 50.6743 107.625 49.8409V60.375C107.625 61.0995 108.213 61.6875 108.938 61.6875C109.662 61.6875 110.25 61.0995 110.25 60.375V44.625V40.6875V15.75H115.5V30.1875C115.5 30.912 116.088 31.5 116.813 31.5C117.537 31.5 118.125 30.912 118.125 30.1875V15.75H120.75V64.3125H108.938C108.213 64.3125 107.625 64.9005 107.625 65.625V74.8125C107.625 78.4311 110.569 81.375 114.188 81.375H116.813C120.431 81.375 123.375 78.4311 123.375 74.8125V14.4375C123.375 14.1908 123.305 13.9506 123.176 13.7419ZM52.5 21C52.5 18.8291 54.2666 17.0625 56.4375 17.0625H77.4375V18.375C77.4375 19.8227 76.2602 21 74.8125 21H57.75C57.0255 21 56.4375 21.588 56.4375 22.3125V23.625C56.4375 25.7959 54.6709 27.5625 52.5 27.5625V21ZM52.6496 30.1731C56.1973 30.0904 59.0625 27.1924 59.0625 23.625H73.5V24.9375C73.5 25.1042 73.5315 25.2696 73.5932 25.4258L75.4989 30.1875H74.5093C73.8964 30.1875 73.3648 30.6114 73.2296 31.2086C72.1271 36.0636 67.7145 39.4721 62.7296 39.3711C57.6594 39.2451 53.4516 35.259 52.6496 30.1731ZM115.5 6.41419L119.695 13.125H111.305L115.5 6.41419ZM44.625 34.125H26.25V5.25H44.625V34.125ZM5.25 38.0625V5.25H23.625V34.125H9.1875C8.463 34.125 7.875 34.713 7.875 35.4375C7.875 36.162 8.463 36.75 9.1875 36.75H44.625V38.0625C44.625 38.7857 44.0357 39.375 43.3125 39.375H6.5625C5.83931 39.375 5.25 38.7857 5.25 38.0625ZM18.375 44.625V42H22.3125V48.5625C20.1416 48.5625 18.375 46.7959 18.375 44.625ZM53.8125 120.75H32.9451C33.5541 117.759 36.2066 115.5 39.375 115.5H53.8125V120.75ZM93.0549 120.75H72.1875V115.5H86.625C89.7947 115.5 92.4459 117.759 93.0549 120.75ZM76.125 48.5625C75.4005 48.5625 74.8125 49.1505 74.8125 49.875V72.1875H55.125C54.4005 72.1875 53.8125 72.7755 53.8125 73.5C53.8125 74.2245 54.4005 74.8125 55.125 74.8125H74.8125V76.125C74.8125 76.2287 74.8243 76.3324 74.8493 76.4334L83.6456 112.875H71.9001L64.2731 82.3686C64.1274 81.7845 63.6024 81.375 63 81.375C62.3976 81.375 61.8726 81.7845 61.7269 82.3686L54.0999 112.875H41.0301L51.1389 76.4768C51.1718 76.3626 51.1875 76.2431 51.1875 76.125V49.875C51.1875 49.1505 50.5995 48.5625 49.875 48.5625H24.9375V42H101.063V48.5625H76.125ZM103.688 48.5625V42H107.625V44.625C107.625 46.7959 105.858 48.5625 103.688 48.5625ZM120.75 66.9375V69.5625H110.25V66.9375H120.75ZM116.813 78.75H114.188C112.017 78.75 110.25 76.9834 110.25 74.8125V72.1875H120.75V74.8125C120.75 76.9834 118.983 78.75 116.813 78.75Z" fill="#0B1B7E"/>
<path opacity="0.75" d="M118.125 39.375V35.4375C118.125 34.713 117.537 34.125 116.812 34.125C116.088 34.125 115.5 34.713 115.5 35.4375V39.375C115.5 40.0995 116.088 40.6875 116.812 40.6875C117.537 40.6875 118.125 40.0995 118.125 39.375Z" fill="#0B1B7E"/>
<path opacity="0.75" d="M9.1875 10.5H19.6875C20.412 10.5 21 9.912 21 9.1875C21 8.463 20.412 7.875 19.6875 7.875H9.1875C8.463 7.875 7.875 8.463 7.875 9.1875C7.875 9.912 8.463 10.5 9.1875 10.5Z" fill="#0B1B7E"/>
<path opacity="0.75" d="M9.1875 15.75H19.6875C20.412 15.75 21 15.162 21 14.4375C21 13.713 20.412 13.125 19.6875 13.125H9.1875C8.463 13.125 7.875 13.713 7.875 14.4375C7.875 15.162 8.463 15.75 9.1875 15.75Z" fill="#0B1B7E"/>
<path opacity="0.75" d="M9.1875 21H19.6875C20.412 21 21 20.412 21 19.6875C21 18.963 20.412 18.375 19.6875 18.375H9.1875C8.463 18.375 7.875 18.963 7.875 19.6875C7.875 20.412 8.463 21 9.1875 21Z" fill="#0B1B7E"/>
<path opacity="0.75" d="M9.1875 26.25H19.6875C20.412 26.25 21 25.662 21 24.9375C21 24.213 20.412 23.625 19.6875 23.625H9.1875C8.463 23.625 7.875 24.213 7.875 24.9375C7.875 25.662 8.463 26.25 9.1875 26.25Z" fill="#0B1B7E"/>
<path opacity="0.75" d="M9.1875 31.5H19.6875C20.412 31.5 21 30.912 21 30.1875C21 29.463 20.412 28.875 19.6875 28.875H9.1875C8.463 28.875 7.875 29.463 7.875 30.1875C7.875 30.912 8.463 31.5 9.1875 31.5Z" fill="#0B1B7E"/>
<path opacity="0.75" d="M30.1875 10.5H40.6875C41.412 10.5 42 9.912 42 9.1875C42 8.463 41.412 7.875 40.6875 7.875H30.1875C29.463 7.875 28.875 8.463 28.875 9.1875C28.875 9.912 29.463 10.5 30.1875 10.5Z" fill="#0B1B7E"/>
<path opacity="0.75" d="M30.1875 15.75H40.6875C41.412 15.75 42 15.162 42 14.4375C42 13.713 41.412 13.125 40.6875 13.125H30.1875C29.463 13.125 28.875 13.713 28.875 14.4375C28.875 15.162 29.463 15.75 30.1875 15.75Z" fill="#0B1B7E"/>
<path opacity="0.75" d="M30.1875 21H40.6875C41.412 21 42 20.412 42 19.6875C42 18.963 41.412 18.375 40.6875 18.375H30.1875C29.463 18.375 28.875 18.963 28.875 19.6875C28.875 20.412 29.463 21 30.1875 21Z" fill="#0B1B7E"/>
<path opacity="0.75" d="M30.1875 26.25H40.6875C41.412 26.25 42 25.662 42 24.9375C42 24.213 41.412 23.625 40.6875 23.625H30.1875C29.463 23.625 28.875 24.213 28.875 24.9375C28.875 25.662 29.463 26.25 30.1875 26.25Z" fill="#0B1B7E"/>
<path opacity="0.75" d="M30.1875 31.5H40.6875C41.412 31.5 42 30.912 42 30.1875C42 29.463 41.412 28.875 40.6875 28.875H30.1875C29.463 28.875 28.875 29.463 28.875 30.1875C28.875 30.912 29.463 31.5 30.1875 31.5Z" fill="#0B1B7E"/>
<path opacity="0.75" d="M11.8125 52.5C11.088 52.5 10.5 53.088 10.5 53.8125V70.875C10.5 71.5995 11.088 72.1875 11.8125 72.1875C12.537 72.1875 13.125 71.5995 13.125 70.875V53.8125C13.125 53.088 12.537 52.5 11.8125 52.5Z" fill="#0B1B7E"/>
<path opacity="0.75" d="M11.8125 77.4375C12.5374 77.4375 13.125 76.8499 13.125 76.125C13.125 75.4001 12.5374 74.8125 11.8125 74.8125C11.0876 74.8125 10.5 75.4001 10.5 76.125C10.5 76.8499 11.0876 77.4375 11.8125 77.4375Z" fill="#0B1B7E"/>
<path opacity="0.75" d="M11.8125 82.6875C12.5374 82.6875 13.125 82.0999 13.125 81.375C13.125 80.6501 12.5374 80.0625 11.8125 80.0625C11.0876 80.0625 10.5 80.6501 10.5 81.375C10.5 82.0999 11.0876 82.6875 11.8125 82.6875Z" fill="#0B1B7E"/>
<path opacity="0.75" d="M21 57.75C20.2755 57.75 19.6875 58.338 19.6875 59.0625V76.125C19.6875 76.8495 20.2755 77.4375 21 77.4375C21.7245 77.4375 22.3125 76.8495 22.3125 76.125V59.0625C22.3125 58.338 21.7245 57.75 21 57.75Z" fill="#0B1B7E"/>
<path opacity="0.75" d="M21 82.6875C21.7249 82.6875 22.3125 82.0999 22.3125 81.375C22.3125 80.6501 21.7249 80.0625 21 80.0625C20.2751 80.0625 19.6875 80.6501 19.6875 81.375C19.6875 82.0999 20.2751 82.6875 21 82.6875Z" fill="#0B1B7E"/>
<path opacity="0.75" d="M30.1875 82.6875C30.912 82.6875 31.5 82.0995 31.5 81.375V64.3125C31.5 63.588 30.912 63 30.1875 63C29.463 63 28.875 63.588 28.875 64.3125V81.375C28.875 82.0995 29.463 82.6875 30.1875 82.6875Z" fill="#0B1B7E"/>
<path opacity="0.75" d="M30.1875 87.9375C30.9124 87.9375 31.5 87.3499 31.5 86.625C31.5 85.9001 30.9124 85.3125 30.1875 85.3125C29.4626 85.3125 28.875 85.9001 28.875 86.625C28.875 87.3499 29.4626 87.9375 30.1875 87.9375Z" fill="#0B1B7E"/>
<path opacity="0.75" d="M21 87.9375C21.7249 87.9375 22.3125 87.3499 22.3125 86.625C22.3125 85.9001 21.7249 85.3125 21 85.3125C20.2751 85.3125 19.6875 85.9001 19.6875 86.625C19.6875 87.3499 20.2751 87.9375 21 87.9375Z" fill="#0B1B7E"/>
<path opacity="0.75" d="M11.8125 87.9375C12.5374 87.9375 13.125 87.3499 13.125 86.625C13.125 85.9001 12.5374 85.3125 11.8125 85.3125C11.0876 85.3125 10.5 85.9001 10.5 86.625C10.5 87.3499 11.0876 87.9375 11.8125 87.9375Z" fill="#0B1B7E"/>
</svg>
