<svg width="48" height="48" viewBox="0 0 48 48" fill="none" xmlns="http://www.w3.org/2000/svg">
<path d="M34.2 12H13.8C12.8 12 12 12.8 12 13.7V34.2C12 35.1 12.8 35.9 13.8 35.9H34.2C35.2 35.9 36 35.1 36 34.2V13.7C36 12.8 35.2 12 34.2 12ZM19.1 32.4H15.6V21H19.1V32.4ZM17.4 19.4C16.3 19.4 15.3 18.5 15.3 17.3C15.3 16.1 16.2 15.2 17.4 15.2C18.5 15.2 19.5 16.1 19.5 17.3C19.5 18.5 18.5 19.4 17.4 19.4ZM32.5 32.3H29V26.7C29 25.4 29 23.6 27.1 23.6C25.2 23.6 25 25.1 25 26.5V32.2H21.5V21H24.8V22.5H24.9C25.4 21.6 26.6 20.6 28.3 20.6C31.9 20.6 32.6 23 32.6 26.1V32.3H32.5Z" fill="#363DF1"/>
<circle cx="24" cy="24" r="23" stroke="#363DF1" stroke-width="2"/>
</svg>
