<svg width="126" height="126" viewBox="0 0 126 126" fill="none" xmlns="http://www.w3.org/2000/svg">
<g opacity="0.75">
<path d="M114.188 92.5312H112.219V11.8125C112.219 6.38466 107.803 1.96875 102.375 1.96875H23.625C18.1972 1.96875 13.7812 6.38466 13.7812 11.8125V61.0312H7.875C4.61869 61.0312 1.96875 63.6812 1.96875 66.9375V118.125C1.96875 121.381 4.61869 124.031 7.875 124.031H43.3125C46.5688 124.031 49.2188 121.381 49.2188 118.125V111.614L50.8312 112.219H114.188C119.615 112.219 124.031 107.803 124.031 102.375C124.031 96.9472 119.615 92.5312 114.188 92.5312ZM88.5938 92.5312V84.6562H100.406V92.5312H88.5938ZM49.2188 68.9062H53.1562V80.7188H49.2188V68.9062ZM57.0938 68.9062H68.9062V80.7188H57.0938V68.9062ZM100.406 80.7188H88.5938V68.9062H100.406V80.7188ZM84.6562 80.7188H72.8438V68.9062H84.6562V80.7188ZM100.406 64.9688H88.5938V53.1562H100.406V64.9688ZM84.6562 64.9688H72.8438V53.1562H84.6562V64.9688ZM68.9062 64.9688H57.0938V53.1562H68.9062V64.9688ZM68.9062 84.6562V92.5312H57.0938V84.6562H68.9062ZM72.8438 84.6562H84.6562V92.5312H72.8438V84.6562ZM100.406 49.2188H88.5938V37.4062H100.406V49.2188ZM84.6562 49.2188H72.8438V37.4062H84.6562V49.2188ZM68.9062 49.2188H57.0938V37.4062H68.9062V49.2188ZM53.1562 49.2188H41.3438V37.4062H53.1562V49.2188ZM37.4062 49.2188H25.5938V37.4062H37.4062V49.2188ZM25.5938 53.1562H37.4062V61.0312H25.5938V53.1562ZM41.3438 53.1562H53.1562V64.9688H48.8565C48.0414 62.683 45.8758 61.0312 43.3125 61.0312H41.3438V53.1562ZM49.2188 84.6562H53.1562V92.5312H50.8312L49.2188 93.1357V84.6562ZM49.2188 97.3409V107.409L37.9752 103.194C37.6346 103.066 37.4062 102.737 37.4062 102.375C37.4062 102.013 37.6346 101.684 37.9733 101.558L49.2188 97.3409ZM53.1562 104.344H104.344V108.281H53.1562V104.344ZM104.344 100.406H53.1562V96.4688H104.344V100.406ZM23.625 5.90625H102.375C105.631 5.90625 108.281 8.55619 108.281 11.8125V25.5938H17.7188V11.8125C17.7188 8.55619 20.3687 5.90625 23.625 5.90625ZM17.7188 29.5312H108.281V92.5312H104.344V37.4062C104.344 35.2347 102.578 33.4688 100.406 33.4688H25.5938C23.4222 33.4688 21.6562 35.2347 21.6562 37.4062V61.0312H17.7188V29.5312ZM45.2812 118.125C45.2812 119.212 44.3973 120.094 43.3125 120.094H7.875C6.79022 120.094 5.90625 119.212 5.90625 118.125V66.9375C5.90625 65.8507 6.79022 64.9688 7.875 64.9688H43.3125C44.3973 64.9688 45.2812 65.8507 45.2812 66.9375V94.6122L36.5872 97.8725C34.7228 98.5733 33.4688 100.383 33.4688 102.375C33.4688 104.367 34.7228 106.177 36.5892 106.879L45.2812 110.138V118.125ZM114.188 108.281H108.281V96.4688H114.188C117.444 96.4688 120.094 99.1187 120.094 102.375C120.094 105.631 117.444 108.281 114.188 108.281Z" fill="#0B1B7E"/>
<path d="M41.3438 68.9062H9.84375V84.6562H41.3438V68.9062ZM37.4062 80.7188H13.7812V72.8438H37.4062V80.7188Z" fill="#0B1B7E"/>
<path d="M13.7806 113.373L11.235 110.827L8.45117 113.611L13.7806 118.94L30.9225 101.798L28.1387 99.0146L13.7806 113.373Z" fill="#0B1B7E"/>
<path d="M9.84375 88.5938H21.6562V92.5312H9.84375V88.5938Z" fill="#0B1B7E"/>
<path d="M9.84375 96.4688H21.6562V100.406H9.84375V96.4688Z" fill="#0B1B7E"/>
<path d="M31.5 21.6562C34.7563 21.6562 37.4062 19.0063 37.4062 15.75C37.4062 12.4937 34.7563 9.84375 31.5 9.84375C28.2437 9.84375 25.5938 12.4937 25.5938 15.75C25.5938 19.0063 28.2437 21.6562 31.5 21.6562ZM31.5 13.7812C32.5848 13.7812 33.4688 14.6632 33.4688 15.75C33.4688 16.8368 32.5848 17.7188 31.5 17.7188C30.4152 17.7188 29.5312 16.8368 29.5312 15.75C29.5312 14.6632 30.4152 13.7812 31.5 13.7812Z" fill="#0B1B7E"/>
<path d="M51.1875 21.6562C54.4438 21.6562 57.0938 19.0063 57.0938 15.75C57.0938 12.4937 54.4438 9.84375 51.1875 9.84375C47.9312 9.84375 45.2812 12.4937 45.2812 15.75C45.2812 19.0063 47.9312 21.6562 51.1875 21.6562ZM51.1875 13.7812C52.2723 13.7812 53.1562 14.6632 53.1562 15.75C53.1562 16.8368 52.2723 17.7188 51.1875 17.7188C50.1027 17.7188 49.2188 16.8368 49.2188 15.75C49.2188 14.6632 50.1027 13.7812 51.1875 13.7812Z" fill="#0B1B7E"/>
<path d="M74.8125 21.6562C78.0688 21.6562 80.7188 19.0063 80.7188 15.75C80.7188 12.4937 78.0688 9.84375 74.8125 9.84375C71.5562 9.84375 68.9062 12.4937 68.9062 15.75C68.9062 19.0063 71.5562 21.6562 74.8125 21.6562ZM74.8125 13.7812C75.8973 13.7812 76.7812 14.6632 76.7812 15.75C76.7812 16.8368 75.8973 17.7188 74.8125 17.7188C73.7277 17.7188 72.8438 16.8368 72.8438 15.75C72.8438 14.6632 73.7277 13.7812 74.8125 13.7812Z" fill="#0B1B7E"/>
<path d="M94.5 21.6562C97.7563 21.6562 100.406 19.0063 100.406 15.75C100.406 12.4937 97.7563 9.84375 94.5 9.84375C91.2437 9.84375 88.5938 12.4937 88.5938 15.75C88.5938 19.0063 91.2437 21.6562 94.5 21.6562ZM94.5 13.7812C95.5848 13.7812 96.4688 14.6632 96.4688 15.75C96.4688 16.8368 95.5848 17.7188 94.5 17.7188C93.4152 17.7188 92.5312 16.8368 92.5312 15.75C92.5312 14.6632 93.4152 13.7812 94.5 13.7812Z" fill="#0B1B7E"/>
</g>
</svg>
