<svg width="126" height="126" viewBox="0 0 126 126" fill="none" xmlns="http://www.w3.org/2000/svg">
<g opacity="0.75">
<path d="M97.1251 0H7.875C3.52578 0 0 3.52578 0 7.875V70.875C0 75.2242 3.52578 78.75 7.875 78.75H42.0001V73.5001H7.875C6.42526 73.5001 5.24992 72.3247 5.24992 70.875V7.875C5.24992 6.42526 6.42526 5.24992 7.875 5.24992H97.1251C98.5748 5.24992 99.7502 6.42526 99.7502 7.875V55.125H105V7.875C105 3.52578 101.474 0 97.1251 0Z" fill="#0B1B7E"/>
<path d="M36.7499 76.125H31.5V91.875H36.7499V76.125Z" fill="#0B1B7E"/>
<path d="M18.375 63C16.9253 63 15.7499 61.8247 15.7499 60.3749V55.125H10.5V60.3749C10.5 64.7241 14.0258 68.2499 18.375 68.2499H23.6249V63H18.375Z" fill="#0B1B7E"/>
<path d="M15.7499 44.625H10.5V49.8749H15.7499V44.625Z" fill="#0B1B7E"/>
<path d="M95.9357 55.6024C90.5867 50.2524 83.3311 47.2468 75.7657 47.2471C60.0142 47.2478 47.2456 60.0174 47.2461 75.7688C47.2468 91.5203 60.0164 104.289 75.7679 104.288C83.3308 104.288 90.5837 101.284 95.9321 95.9367C107.071 84.7997 107.073 66.7416 95.9357 55.6024ZM75.7521 99.0409C62.9001 99.0365 52.4849 88.6144 52.4894 75.7624C52.4938 62.9104 62.9159 52.4953 75.7679 52.4997C81.9451 52.483 87.8717 54.9409 92.2239 59.3246C96.5842 63.6898 99.0326 69.6081 99.0306 75.7782C99.0262 88.6302 88.6041 99.0454 75.7521 99.0409Z" fill="#0B1B7E"/>
<path d="M125.23 114.187L108.753 97.7153C108.261 97.2231 107.593 96.9463 106.897 96.9463C106.201 96.9465 105.534 97.2231 105.042 97.7153L97.7178 105.039C96.693 106.064 96.693 107.726 97.7178 108.751L114.195 125.231C114.687 125.723 115.355 126 116.051 126C116.748 125.997 117.416 125.718 117.907 125.223L125.23 117.899C126.255 116.874 126.255 115.212 125.23 114.187ZM116.051 119.663L103.285 106.895L106.897 103.283L119.662 116.051L116.051 119.663Z" fill="#0B1B7E"/>
<path d="M95.9349 92.2214L92.2227 95.9336L101.377 105.088L105.089 101.376L95.9349 92.2214Z" fill="#0B1B7E"/>
<path d="M76.125 57.75V62.9999C83.3702 63.0085 89.2413 68.8798 89.2499 76.1248H94.4998C94.4885 65.9816 86.2685 57.7616 76.125 57.75Z" fill="#0B1B7E"/>
<path d="M47.2499 89.25H26.25V94.4999H47.2499V89.25Z" fill="#0B1B7E"/>
<path d="M39.375 10.5C35.0258 10.5 31.5 14.0258 31.5 18.375C31.5 22.7242 35.0258 26.25 39.375 26.25C43.7242 26.25 47.25 22.7242 47.25 18.375C47.25 14.0258 43.7242 10.5 39.375 10.5ZM39.375 20.9998C37.9253 20.9998 36.7499 19.8245 36.7499 18.3748C36.7499 16.925 37.9253 15.7497 39.375 15.7497C40.8247 15.7497 42.0001 16.925 42.0001 18.3748C42.0001 19.8247 40.8247 20.9998 39.375 20.9998Z" fill="#0B1B7E"/>
<path d="M57.75 28.875C53.4008 28.875 49.875 32.4008 49.875 36.75C49.875 41.0992 53.4008 44.625 57.75 44.625C62.0992 44.625 65.625 41.0992 65.625 36.75C65.625 32.4008 62.0992 28.875 57.75 28.875ZM57.75 39.3751C56.3003 39.3751 55.1249 38.1997 55.1249 36.75C55.1249 35.3003 56.3003 34.1249 57.75 34.1249C59.1997 34.1249 60.3751 35.3003 60.3751 36.75C60.3748 38.1997 59.1997 39.3751 57.75 39.3751Z" fill="#0B1B7E"/>
<path d="M34.8943 19.1448L21.7695 32.2695L25.4817 35.9817L38.6065 22.857L34.8943 19.1448Z" fill="#0B1B7E"/>
<path d="M43.845 19.1501L40.1328 22.8623L53.2576 35.9871L56.9698 32.2748L43.845 19.1501Z" fill="#0B1B7E"/>
<path d="M76.125 10.5C71.7758 10.5 68.25 14.0258 68.25 18.375C68.25 22.7242 71.7758 26.25 76.125 26.25C80.4742 26.25 84 22.7242 84 18.375C84.0002 14.0258 80.4745 10.5 76.125 10.5ZM76.125 20.9998C74.6753 20.9998 73.4999 19.8245 73.4999 18.3748C73.4999 16.925 74.6753 15.7497 76.125 15.7497C77.5747 15.7497 78.7501 16.925 78.7501 18.3748C78.7501 19.8247 77.5747 20.9998 76.125 20.9998Z" fill="#0B1B7E"/>
<path d="M71.6423 19.1545L58.5176 32.2793L62.2298 35.9915L75.3545 22.8668L71.6423 19.1545Z" fill="#0B1B7E"/>
</g>
</svg>
