<svg width="126" height="126" viewBox="0 0 126 126" fill="none" xmlns="http://www.w3.org/2000/svg">
<g opacity="0.75">
<path d="M112.219 8.85938H45.2812C39.8537 8.85938 35.4375 13.2756 35.4375 18.7031V42.4279C11.4721 40.6239 2.71113 72.5373 23.8322 83.3498C12.2722 87.3572 3.9375 98.3276 3.9375 111.234C3.9375 114.491 6.58685 117.141 9.84375 117.141H57.0938C60.3507 117.141 63 114.491 63 111.234C63 103.667 60.1149 96.7778 55.4182 91.5469H63V93.5156C63 96.7725 65.6493 99.4219 68.9062 99.4219H76.7812V103.722C70.6203 105.927 72.1377 115.111 78.75 115.172C85.3628 115.11 86.8793 105.926 80.7188 103.722V99.4219H88.5938C91.8507 99.4219 94.5 96.7725 94.5 93.5156V91.5469H112.219C117.646 91.5469 122.062 87.1307 122.062 81.7031V18.7031C122.062 13.2756 117.646 8.85938 112.219 8.85938ZM15.75 63.9844C15.75 54.2146 23.6981 46.2656 33.4688 46.2656C56.975 47.2387 56.9683 80.7341 33.4688 81.7031C23.6981 81.7031 15.75 73.7551 15.75 63.9844ZM38.5329 101.391H28.4027L33.4649 87.4402L38.5329 101.391ZM59.0625 111.234C59.0625 112.321 58.18 113.203 57.0938 113.203H51.1875V109.266C51.1875 108.177 50.3069 107.297 49.2188 107.297C48.1306 107.297 47.25 108.177 47.25 109.266V113.203H19.6875V109.266C19.6875 108.177 18.8069 107.297 17.7188 107.297C16.6306 107.297 15.75 108.177 15.75 109.266V113.203H9.84375C8.75747 113.203 7.875 112.321 7.875 111.234C7.875 98.3599 17.4412 87.7045 29.8327 85.9296L23.7442 102.686C23.2561 103.918 24.2681 105.365 25.5938 105.328H41.3438C42.6675 105.365 43.6836 103.919 43.1933 102.686L37.1049 85.9296C49.4963 87.7045 59.0625 98.3599 59.0625 111.234ZM78.75 111.234C76.1627 111.189 76.1629 107.342 78.75 107.297C81.3373 107.342 81.3371 111.189 78.75 111.234ZM90.5625 93.5156C90.5625 94.6019 89.68 95.4844 88.5938 95.4844H68.9062C67.82 95.4844 66.9375 94.6019 66.9375 93.5156V91.5469H90.5625V93.5156ZM118.125 81.7031C118.125 84.96 115.476 87.6094 112.219 87.6094H51.113C48.6992 85.8018 46.0085 84.3562 43.1053 83.3498C60.7297 74.5844 58.3012 48.554 39.375 43.1677V18.7031C39.375 15.4462 42.0243 12.7969 45.2812 12.7969H112.219C115.476 12.7969 118.125 15.4462 118.125 18.7031V81.7031Z" fill="#0B1B7E"/>
<path d="M63.0007 32.4844H94.5007C97.0811 32.4431 97.0945 28.5907 94.5007 28.5469H63.0007C60.4225 28.5873 60.4052 32.4402 63.0007 32.4844Z" fill="#0B1B7E"/>
<path d="M100.407 42.3281H57.0942C54.5203 42.3673 54.4951 46.2211 57.0942 46.2656H100.407C102.981 46.2263 103.006 42.3726 100.407 42.3281Z" fill="#0B1B7E"/>
<path d="M90.5634 60.0469C93.144 60.0055 93.157 56.1532 90.5634 56.1094H66.9384C64.3578 56.1506 64.3448 60.0029 66.9384 60.0469H90.5634Z" fill="#0B1B7E"/>
<path d="M98.4382 69.8906H59.0632C56.485 69.9304 56.4677 73.7846 59.0632 73.8281H98.4382C101.014 73.7892 101.036 69.9343 98.4382 69.8906Z" fill="#0B1B7E"/>
</g>
</svg>
