<svg width="126" height="126" viewBox="0 0 126 126" fill="none" xmlns="http://www.w3.org/2000/svg">
<g opacity="0.75">
<path d="M91.2838 25.1141C91.2708 24.8402 91.2008 24.5719 91.0781 24.3267C90.9554 24.0814 90.7828 23.8644 90.5714 23.6897C83.9625 18.2124 75.8669 14.8363 67.3246 13.9951C65.9093 13.8543 64.4699 13.784 63.0315 13.7827C63.0209 13.7827 63.0106 13.7812 63 13.7812C62.9894 13.7812 62.9794 13.7827 62.9688 13.7827C61.5296 13.7827 60.0907 13.8543 58.6764 13.9951C52.2575 14.6251 46.0617 16.6869 40.5453 20.0287C35.0289 23.3705 30.3324 27.9072 26.8016 33.3046L26.7866 33.3265C21.7118 41.0623 19.2467 50.2196 19.7523 59.4577C20.2578 68.6957 23.7075 77.5293 29.5962 84.6651C29.7708 84.8767 29.9877 85.0495 30.2329 85.1724C30.4782 85.2953 30.7464 85.3656 31.0204 85.3788C31.0516 85.3803 31.0827 85.3808 31.1139 85.3808C31.6359 85.3808 32.1366 85.1735 32.5058 84.8044L90.7102 26.5995C90.904 26.4055 91.0551 26.1732 91.1539 25.9174C91.2527 25.6616 91.2969 25.388 91.2838 25.1141ZM56.6154 55.125H44.5292C44.6963 50.0997 45.5169 45.1176 46.9705 40.3043C51.6345 40.9091 56.3289 41.2502 61.0313 41.326V50.7091L56.6154 55.125ZM23.6797 55.125C23.993 48.6118 25.9283 42.2801 29.3098 36.7046C33.8232 37.9721 38.4046 38.9833 43.0322 39.7333C41.5728 44.7405 40.7523 49.912 40.5902 55.125H23.6797ZM59.8025 17.8494C60.2108 17.8164 60.6203 17.7877 61.0313 17.7675V37.3885C56.7635 37.3177 52.5024 37.0213 48.2659 36.5006C50.8767 29.5998 54.7938 23.2671 59.8025 17.8494ZM52.6781 59.0625L45.2586 66.4817C44.8581 64.0267 44.615 61.5486 44.5307 59.0625H52.6781ZM64.9688 41.3263C66.8555 41.2963 68.7439 41.223 70.6341 41.1065L64.9688 46.7716V41.3263ZM74.9297 36.8107C71.6347 37.1395 68.2957 37.3334 64.9688 37.388V17.768C65.3802 17.7881 65.7902 17.8172 66.1992 17.8499C70.7657 22.796 74.4299 28.5041 77.0257 34.7152L74.9297 36.8107ZM53.8207 18.7942C49.7341 23.9578 46.5087 29.7477 44.2691 35.9403C40.0194 35.2746 35.8084 34.382 31.6541 33.2662C37.1387 26.0149 44.9757 20.8983 53.8207 18.7942ZM31.295 80.4456C26.7156 74.2182 24.0664 66.7826 23.6765 59.0625H40.5902C40.7059 62.6911 41.1391 66.3026 41.8849 69.8557L31.295 80.4456ZM80.0204 31.719C77.9489 27.1033 75.3146 22.7615 72.1774 18.7925C77.2984 20.0137 82.1198 22.257 86.3524 25.3878L80.0204 31.719Z" fill="#0B1B7E"/>
<path d="M99.2141 33.3279C98.3471 32.0094 97.4089 30.7391 96.4037 29.5226C96.2291 29.3111 96.0121 29.1385 95.7669 29.0158C95.5216 28.893 95.2534 28.8229 94.9795 28.8098C94.7055 28.7968 94.4318 28.8411 94.176 28.94C93.9202 29.0389 93.6879 29.1901 93.4939 29.384L35.2895 87.5877C35.0956 87.7816 34.9443 88.0139 34.8454 88.2697C34.7465 88.5255 34.7021 88.7992 34.7151 89.0731C34.7281 89.3471 34.7982 89.6153 34.9209 89.8606C35.0436 90.1058 35.2162 90.3228 35.4276 90.4975C42.0365 95.9748 50.1321 99.3509 58.6744 100.192C61.4214 100.463 64.1878 100.475 66.9372 100.229V110.25C66.9372 110.646 67.0567 111.033 67.2801 111.36C67.5034 111.687 67.8202 111.939 68.1891 112.083C68.5579 112.227 68.9617 112.257 69.3477 112.168C69.7336 112.079 70.0838 111.876 70.3525 111.585L88.009 92.4571C97.174 85.9738 103.464 76.1858 105.555 65.1557C107.645 54.1255 105.372 42.7147 99.2141 33.3277V33.3279ZM85.5736 89.3563C85.4586 89.4371 85.3525 89.5299 85.2572 89.6332L70.8747 105.214V98.0161C70.8747 97.734 70.8141 97.4552 70.697 97.1986C70.5799 96.942 70.409 96.7135 70.1959 96.5287C69.9827 96.3439 69.7324 96.207 69.4618 96.1274C69.1912 96.0477 68.9066 96.0272 68.6274 96.0671C68.0313 96.1525 67.4776 96.2199 66.934 96.2738C64.3172 96.5324 61.6812 96.5324 59.0644 96.2738C52.0358 95.5821 45.3259 92.9991 39.6476 88.7994L94.7049 33.7416C95.1289 34.3158 95.5352 34.8989 95.9238 35.4909C101.539 44.0533 103.599 54.466 101.667 64.5215C99.7349 74.5771 93.9625 83.4849 85.5736 89.3563Z" fill="#0B1B7E"/>
<path d="M63 80.7188C65.1746 80.7188 66.9375 78.9559 66.9375 76.7812C66.9375 74.6066 65.1746 72.8438 63 72.8438C60.8254 72.8438 59.0625 74.6066 59.0625 76.7812C59.0625 78.9559 60.8254 80.7188 63 80.7188Z" fill="#0B1B7E"/>
<path d="M74.8125 80.7188C76.9871 80.7188 78.75 78.9559 78.75 76.7812C78.75 74.6066 76.9871 72.8438 74.8125 72.8438C72.6379 72.8438 70.875 74.6066 70.875 76.7812C70.875 78.9559 72.6379 80.7188 74.8125 80.7188Z" fill="#0B1B7E"/>
<path d="M86.625 80.7188C88.7996 80.7188 90.5625 78.9559 90.5625 76.7812C90.5625 74.6066 88.7996 72.8438 86.625 72.8438C84.4504 72.8438 82.6875 74.6066 82.6875 76.7812C82.6875 78.9559 84.4504 80.7188 86.625 80.7188Z" fill="#0B1B7E"/>
<path d="M19.6856 83.6871C19.1675 83.6224 18.6449 83.7661 18.2328 84.0867C17.8207 84.4072 17.5528 84.8784 17.488 85.3965L17.3216 86.7254C10.2989 76.8308 7.0189 64.7635 8.06658 52.6753C9.11426 40.5871 14.4215 29.264 23.0418 20.7252C23.2267 20.5435 23.3738 20.3272 23.4748 20.0885C23.5758 19.8498 23.6286 19.5935 23.6304 19.3343C23.6321 19.0752 23.5826 18.8182 23.4848 18.5782C23.387 18.3382 23.2427 18.1199 23.0603 17.9358C22.8779 17.7516 22.661 17.6053 22.4219 17.5053C22.1829 17.4052 21.9264 17.3533 21.6672 17.3525C21.408 17.3518 21.1513 17.4023 20.9117 17.501C20.672 17.5997 20.4542 17.7448 20.2708 17.9279C11.0084 27.102 5.29711 39.2619 4.15102 52.2482C3.00494 65.2344 6.49827 78.2066 14.0107 88.8612L12.3471 88.6151C12.0913 88.5773 11.8306 88.5901 11.5798 88.653C11.329 88.7159 11.0931 88.8276 10.8855 88.9816C10.4661 89.2928 10.1876 89.7578 10.1111 90.2743C10.0346 90.7908 10.1664 91.3166 10.4776 91.7359C10.7887 92.1553 11.2537 92.4338 11.7702 92.5103L18.4148 93.4947C18.6743 93.5331 18.9388 93.5193 19.1928 93.454C19.4469 93.3888 19.6854 93.2734 19.8942 93.1147C20.1031 92.956 20.2781 92.7572 20.409 92.5299C20.54 92.3027 20.6242 92.0515 20.6567 91.7912L21.395 85.885C21.4271 85.6284 21.4083 85.368 21.3398 85.1187C21.2712 84.8694 21.1542 84.6361 20.9955 84.432C20.8368 84.2279 20.6394 84.0571 20.4146 83.9293C20.1899 83.8015 19.9422 83.7192 19.6856 83.6871Z" fill="#0B1B7E"/>
<path d="M111.858 23.625C112.38 23.625 112.881 23.4176 113.25 23.0484C113.619 22.6792 113.827 22.1784 113.827 21.6562C113.827 21.1341 113.619 20.6333 113.25 20.2641C112.881 19.8949 112.38 19.6875 111.858 19.6875H105.952C105.43 19.6875 104.929 19.8949 104.56 20.2641C104.19 20.6333 103.983 21.1341 103.983 21.6562V27.5625C103.983 28.0846 104.19 28.5854 104.56 28.9546C104.929 29.3238 105.43 29.5312 105.952 29.5312C106.474 29.5312 106.975 29.3238 107.344 28.9546C107.713 28.5854 107.921 28.0846 107.921 27.5625V26.9133C115.093 36.7393 118.532 48.7986 117.62 60.9299C116.709 73.0611 111.506 84.471 102.945 93.1145C102.578 93.4855 102.373 93.9872 102.375 94.5094C102.378 95.0316 102.587 95.5313 102.958 95.8988C103.329 96.2663 103.831 96.4713 104.353 96.4688C104.875 96.4663 105.375 96.2565 105.743 95.8855C115.108 86.4296 120.736 73.9047 121.588 60.6231C122.44 47.3415 118.459 34.2001 110.378 23.625H111.858Z" fill="#0B1B7E"/>
</g>
</svg>
